<svg width="19" height="17" viewBox="0 0 19 17" fill="none" xmlns="http://www.w3.org/2000/svg">
<path d="M6.70866 14.4999C7.34996 14.4999 7.86983 14.0522 7.86983 13.4999C7.86983 12.9477 7.34996 12.4999 6.70866 12.4999C6.06736 12.4999 5.54749 12.9477 5.54749 13.4999C5.54749 14.0522 6.06736 14.4999 6.70866 14.4999Z" fill="#4299E1"/>
<path d="M14.837 14.4999C15.4783 14.4999 15.9981 14.0522 15.9981 13.4999C15.9981 12.9477 15.4783 12.4999 14.837 12.4999C14.1957 12.4999 13.6758 12.9477 13.6758 13.4999C13.6758 14.0522 14.1957 14.4999 14.837 14.4999Z" fill="#4299E1"/>
<path d="M16.898 4.27453C16.8164 4.1886 16.7136 4.1194 16.5971 4.07194C16.4806 4.02449 16.3533 3.99996 16.2245 4.00015H5.18064L4.95821 2.91328C4.93449 2.79751 4.86416 2.69263 4.75957 2.61708C4.65499 2.54153 4.52284 2.50013 4.38633 2.50015H2.06398C1.91 2.50015 1.76233 2.55283 1.65345 2.6466C1.54457 2.74037 1.4834 2.86754 1.4834 3.00015C1.4834 3.13276 1.54457 3.25994 1.65345 3.35371C1.76233 3.44747 1.91 3.50015 2.06398 3.50015H3.89936L5.55621 11.587C5.57993 11.7028 5.65026 11.8077 5.75484 11.8832C5.85943 11.9588 5.99158 12.0002 6.12809 12.0001H15.4175C15.5714 12.0001 15.7191 11.9475 15.828 11.8537C15.9369 11.7599 15.998 11.6328 15.998 11.5001C15.998 11.3675 15.9369 11.2404 15.828 11.1466C15.7191 11.0528 15.5714 11.0001 15.4175 11.0001H6.61505L6.4104 10.0002H15.1794C15.3808 9.99993 15.5758 9.93981 15.7316 9.82996C15.8874 9.72011 15.9943 9.56728 16.0343 9.39734L17.0794 4.89734C17.1046 4.78843 17.1014 4.67607 17.07 4.56837C17.0386 4.46066 16.9798 4.3603 16.898 4.27453Z" fill="#4299E1"/>
</svg>
