<svg width="19" height="17" viewBox="0 0 19 17" fill="none" xmlns="http://www.w3.org/2000/svg">
<path d="M1.48352 12.2495C1.48352 12.7136 1.69761 13.1588 2.07869 13.4869C2.45978 13.8151 2.97664 13.9995 3.51557 13.9995H15.7079C16.2468 13.9995 16.7637 13.8151 17.1448 13.4869C17.5258 13.1588 17.7399 12.7136 17.7399 12.2495V7.43701H1.48352V12.2495ZM3.87844 9.87451C3.87844 9.62587 3.99313 9.38741 4.19728 9.2116C4.40143 9.03578 4.67832 8.93701 4.96704 8.93701H6.70879C6.99751 8.93701 7.2744 9.03578 7.47855 9.2116C7.6827 9.38741 7.79739 9.62587 7.79739 9.87451V10.4995C7.79739 10.7482 7.6827 10.9866 7.47855 11.1624C7.2744 11.3382 6.99751 11.437 6.70879 11.437H4.96704C4.67832 11.437 4.40143 11.3382 4.19728 11.1624C3.99313 10.9866 3.87844 10.7482 3.87844 10.4995V9.87451Z" fill="#F6AD55"/>
<path d="M15.7079 2.99915H3.51557C2.97664 2.99915 2.45978 3.18352 2.07869 3.51171C1.69761 3.8399 1.48352 4.28502 1.48352 4.74914V5.56164H17.7399V4.74914C17.7399 4.28502 17.5258 3.8399 17.1448 3.51171C16.7637 3.18352 16.2468 2.99915 15.7079 2.99915V2.99915Z" fill="#F6AD55"/>
</svg>
