<svg width="19" height="19" viewBox="0 0 19 19" fill="none" xmlns="http://www.w3.org/2000/svg">
<path d="M9.13065 0.5C4.14279 0.5 0.0960388 4.53125 0.0960388 9.5C0.0960388 14.4687 4.14279 18.5 9.13065 18.5C14.1185 18.5 18.1653 14.4687 18.1653 9.5C18.1653 4.53125 14.1185 0.5 9.13065 0.5ZM8.84832 14.75C8.66219 14.75 8.48023 14.695 8.32547 14.592C8.17071 14.489 8.05008 14.3426 7.97885 14.1713C7.90762 14 7.88899 13.8115 7.9253 13.6296C7.96161 13.4477 8.05124 13.2807 8.18286 13.1496C8.31447 13.0185 8.48216 12.9292 8.66472 12.893C8.84728 12.8568 9.0365 12.8754 9.20847 12.9464C9.38043 13.0173 9.52741 13.1375 9.63082 13.2916C9.73423 13.4458 9.78943 13.6271 9.78943 13.8125C9.78943 14.0611 9.69027 14.2996 9.51378 14.4754C9.33729 14.6512 9.09792 14.75 8.84832 14.75V14.75ZM10.4218 9.96875C9.65908 10.4787 9.55415 10.9461 9.55415 11.375C9.55415 11.549 9.48474 11.716 9.3612 11.839C9.23766 11.9621 9.07009 12.0312 8.89538 12.0312C8.72066 12.0312 8.5531 11.9621 8.42955 11.839C8.30601 11.716 8.2366 11.549 8.2366 11.375C8.2366 10.348 8.71092 9.5314 9.68685 8.87844C10.5941 8.27187 11.107 7.8875 11.107 7.04234C11.107 6.46766 10.7776 6.03125 10.0958 5.70828C9.9353 5.63234 9.57815 5.55828 9.13865 5.56344C8.58716 5.57047 8.15896 5.70172 7.8291 5.96609C7.20703 6.46484 7.15433 7.00765 7.15433 7.01562C7.15016 7.1018 7.12899 7.18632 7.09203 7.26435C7.05507 7.34238 7.00304 7.41239 6.93892 7.4704C6.8748 7.5284 6.79984 7.57325 6.71831 7.60239C6.63679 7.63153 6.55031 7.64439 6.46379 7.64023C6.37728 7.63608 6.29244 7.61499 6.21411 7.57817C6.13578 7.54135 6.0655 7.48952 6.00727 7.42565C5.94905 7.36177 5.90403 7.2871 5.87477 7.20589C5.84552 7.12468 5.83261 7.03852 5.83678 6.95234C5.84196 6.83844 5.92148 5.81234 7.00234 4.94609C7.56277 4.49703 8.27566 4.26359 9.11983 4.25328C9.71743 4.24625 10.2788 4.34703 10.6595 4.52609C11.7987 5.06281 12.4245 5.95766 12.4245 7.04234C12.4245 8.62812 11.3606 9.34015 10.4218 9.96875Z" fill="#007AFF"/>
</svg>
