<svg width="60" height="57" viewBox="0 0 60 57" fill="none" xmlns="http://www.w3.org/2000/svg">
<path d="M29.9777 0.0498047C17.9867 0.0498047 7.21705 6.79356 2.44285 17.2253C2.2208 17.7521 2.44285 18.3844 2.99799 18.5951C3.55313 18.8059 4.2193 18.5951 4.44135 18.0683C6.88397 12.7997 10.992 8.47949 15.9882 5.73984C14.4339 7.21504 13.1015 9.00635 12.1023 10.903C11.6582 11.746 11.7692 12.7997 12.4354 13.4319C13.4346 14.4856 15.3221 13.9588 15.8772 13.4319C16.3213 13.0105 16.2103 12.4836 15.8772 11.9567C15.3221 11.1138 14.1008 11.9567 14.1008 11.9567C14.1008 11.9567 16.0993 6.37207 23.7602 2.78945C25.0925 2.47334 26.3138 2.36797 27.6462 2.2626C26.5359 3.31631 25.3146 4.26465 23.8712 5.10762C23.8712 5.10762 18.7639 8.05801 17.9867 8.69024C17.5426 9.11172 17.5426 9.63858 17.8757 10.1654C18.4309 10.903 19.208 10.4815 19.4301 10.2708C20.2073 9.74395 25.0925 6.89893 25.0925 6.89893C27.9792 5.73984 30.977 2.2626 30.977 2.2626C35.9732 2.47334 40.6364 3.84316 44.6334 6.2667L41.8577 8.90098C40.1923 10.4815 38.7489 11.5353 37.3056 12.2729C33.6417 14.2749 30.7549 17.2253 28.8675 20.8079C28.4233 21.6509 28.5344 22.7046 29.2005 23.3368C30.3108 24.2852 32.0873 23.8637 32.6424 23.3368L34.5299 21.5455C34.974 21.124 34.974 20.4918 34.5299 20.0703C34.0858 19.6488 33.4196 19.6488 32.9755 20.0703L30.866 21.8616C30.866 21.8616 32.6424 17.0146 38.4158 14.0642C40.0813 13.2212 41.6357 11.9567 43.4121 10.2708L46.5209 7.32041C47.076 7.7419 47.6312 8.16338 48.1863 8.58486L44.7444 11.8514C43.4121 13.0105 42.1908 14.0642 40.7474 14.9071L37.5276 16.6984C36.9725 17.0146 36.7504 17.6468 37.0835 18.1736C37.5276 18.9112 38.4158 18.7005 38.6379 18.5951L41.8577 16.8038C43.5231 15.8555 44.9665 14.6964 46.2988 13.4319L49.8517 10.0601C50.6289 10.7977 51.2951 11.5353 51.9612 12.2729L42.1908 21.5455C39.7482 23.8637 37.8607 26.498 36.6394 29.343C35.3071 32.2934 33.5306 35.1384 31.199 37.7727C30.7549 38.1941 30.866 38.8264 31.3101 39.2479C31.8652 39.7747 32.6424 39.3532 32.8645 39.1425C35.3071 36.4028 37.1945 33.3471 38.6379 30.1859C39.7482 27.5517 41.4136 25.2335 43.7452 23.0207L53.2936 13.9588C54.6259 15.8555 55.6251 17.8575 56.4023 19.9649L51.4061 24.812C49.2966 26.3926 47.4091 30.1859 47.4091 30.1859C45.9657 32.5041 43.8562 34.5062 41.4136 35.876C38.7489 37.4565 36.1953 39.2479 34.0858 41.2499L30.977 44.2003C30.5329 44.6218 29.8667 44.6218 29.4226 44.2003C29.2005 43.9896 28.8675 43.3573 29.4226 42.7251C29.8667 42.3036 29.8667 41.6714 29.4226 41.2499C28.9785 40.8284 28.2013 40.8284 27.8682 41.2499C25.9807 43.3573 27.202 45.0433 27.8682 45.6755C29.6447 47.3614 31.8652 46.3077 32.5314 45.6755L35.6402 42.7251C37.6386 40.8284 39.9702 39.0371 42.5239 37.5619C45.2996 35.9813 47.5201 33.7686 49.1855 31.2397C49.1855 31.2397 50.962 27.7624 52.9605 26.2872L57.0685 22.2831C57.5126 24.2852 57.7347 26.3926 57.7347 28.5C57.7347 41.0392 48.4083 51.5763 36.0843 54.2106C36.6394 53.7891 37.1945 53.473 37.7497 53.1568C38.3048 52.8407 38.4158 52.2085 38.0828 51.6816C37.7497 51.1548 37.0835 51.0494 36.5284 51.3655C34.4188 52.4192 31.8652 54.8428 31.8652 54.8428C31.199 54.8428 29.2005 54.9482 28.8675 54.8428L30.4219 53.3676C31.8652 51.9978 33.0865 51.1548 34.4188 50.4172L37.6387 48.6259C39.4151 47.6775 40.8585 46.5185 42.0798 45.254C42.0798 45.254 44.0783 43.3573 44.1893 43.4627C44.1893 43.4627 42.0798 46.9399 40.7474 48.3098C40.3033 48.7313 40.3033 49.3635 40.7474 49.785C41.1915 50.2065 41.8577 50.2065 42.3018 49.785C43.8562 48.2044 45.1885 46.5185 46.1878 44.5164C46.6319 43.6734 46.4098 42.6197 45.8547 41.9875C44.6334 41.0392 42.968 41.4606 42.4128 41.9875L40.5254 43.7788C39.4151 44.9379 38.0828 45.8862 36.5284 46.7292L33.3086 48.5205C31.7542 49.3635 30.4218 50.4172 28.8675 51.8924L25.9807 54.5267C20.9845 53.8944 16.4324 51.8924 12.6574 49.0474L15.8772 45.9916C17.5426 44.411 18.986 43.3573 20.4293 42.6197C24.0933 40.6177 26.98 37.6673 28.8675 34.0847C29.3116 33.2417 29.3116 32.188 28.4233 31.4504C27.9792 31.0289 26.0918 30.5021 25.0925 31.4504L23.205 33.2417C22.0948 34.4008 20.7624 35.3491 19.208 36.1921L15.9882 37.9834C14.2118 38.9317 12.7684 40.0908 11.5471 41.3553L8.10527 44.6218C7.55013 43.8842 6.99499 43.252 6.55088 42.5144L16.0993 33.4524C18.6529 30.9235 20.4293 28.2893 21.6507 25.5496C23.3161 21.6509 25.8697 18.0683 29.2005 14.9071L30.4219 13.748C31.088 13.1158 31.9762 10.7977 30.4219 9.32246C29.0895 8.05801 27.091 8.05801 25.7587 9.32246L22.6499 12.2729C20.6514 14.1695 18.3198 15.9608 15.7662 17.436C12.8795 19.122 10.6589 21.2294 9.10452 23.7583C9.10452 23.7583 7.10602 27.7624 5.4406 28.7107L2.66491 31.345C2.33183 30.5021 2.2208 29.5537 2.2208 28.5C2.2208 27.8678 1.77669 27.4463 1.11052 27.4463C0.444355 27.4463 0.000244141 27.8678 0.000244141 28.5C0.000244141 44.2003 13.4346 56.9502 29.9777 56.9502C46.5209 56.9502 59.9552 44.2003 59.9552 28.5C59.9552 12.7997 46.5209 0.0498047 29.9777 0.0498047ZM2.88697 34.0847L6.77294 30.3967C9.10452 28.6054 10.881 25.0228 10.881 25.0228C12.3243 22.7046 14.3228 20.8079 16.8765 19.3327C19.5411 17.7521 22.0948 15.9608 24.2043 13.9588L27.3131 11.0084C27.7572 10.5869 28.3123 10.5869 28.8675 11.0084C29.5336 11.5353 29.0895 12.2729 28.8675 12.4836L27.6462 13.6427C24.0933 17.0146 21.4286 20.8079 19.6522 24.9174C18.5419 27.4463 16.8765 29.8698 14.5449 32.188L5.4406 40.8284C4.2193 38.6156 3.33108 36.4028 2.88697 34.0847ZM9.54863 46.3077L13.1015 42.9358C14.2118 41.7768 15.5441 40.8284 17.0985 39.9855L20.3183 38.1941C22.0948 37.2458 23.5381 36.0867 24.7594 34.8223C24.7594 34.8223 26.7579 33.031 26.869 33.031C26.869 33.031 22.5389 39.1425 19.3191 40.8284C17.6537 41.6714 16.0993 42.9358 14.3228 44.6218L10.992 47.7829C10.5479 47.2561 9.99274 46.8346 9.54863 46.3077Z" fill="white"/>
</svg>
