<svg width="19" height="16" viewBox="0 0 19 16" fill="none" xmlns="http://www.w3.org/2000/svg">
<path d="M16.2914 10.6656C16.2312 10.6031 16.172 10.5406 16.114 10.4803C15.3157 9.64872 14.8327 9.14685 14.8327 6.79279C14.8327 5.57404 14.4942 4.57404 13.8268 3.82404C13.3348 3.26998 12.6697 2.84966 11.793 2.53904C11.7817 2.53363 11.7716 2.52654 11.7632 2.5181C11.4479 1.60873 10.585 0.999664 9.61179 0.999664C8.63858 0.999664 7.77605 1.60873 7.46072 2.51716C7.4523 2.5253 7.44237 2.53216 7.43133 2.53748C5.38549 3.26279 4.39124 4.65435 4.39124 6.79185C4.39124 9.14685 3.90899 9.64872 3.10996 10.4793C3.0519 10.5397 2.99275 10.6009 2.93251 10.6647C2.77692 10.8263 2.67833 11.0229 2.64843 11.2312C2.61853 11.4396 2.65856 11.6509 2.76378 11.8403C2.98767 12.2465 3.46484 12.4987 4.0095 12.4987H15.2181C15.7602 12.4987 16.2341 12.2468 16.4587 11.8425C16.5644 11.6531 16.6048 11.4415 16.5752 11.2329C16.5455 11.0244 16.447 10.8275 16.2914 10.6656Z" fill="#4FD1C5"/>
<path d="M9.61169 15C10.136 14.9996 10.6505 14.877 11.1005 14.6452C11.5505 14.4134 11.9193 14.0811 12.1677 13.6834C12.1794 13.6643 12.1852 13.643 12.1845 13.6215C12.1838 13.5999 12.1766 13.5789 12.1637 13.5604C12.1508 13.542 12.1325 13.5267 12.1107 13.5161C12.0889 13.5055 12.0643 13.4999 12.0393 13.5H7.18484C7.15978 13.4999 7.13512 13.5054 7.11326 13.516C7.09141 13.5265 7.0731 13.5418 7.06013 13.5603C7.04716 13.5788 7.03996 13.5998 7.03924 13.6214C7.03852 13.643 7.04431 13.6643 7.05602 13.6834C7.30442 14.081 7.67313 14.4134 8.12307 14.6452C8.57301 14.8769 9.0874 14.9995 9.61169 15Z" fill="#4FD1C5"/>
</svg>
